<?xml version="1.0" standalone="no"?>
<!DOCTYPE svg PUBLIC "-//W3C//DTD SVG 20010904//EN"
 "http://www.w3.org/TR/2001/REC-SVG-20010904/DTD/svg10.dtd">
<svg version="1.0" xmlns="http://www.w3.org/2000/svg"
 width="700.000000pt" height="700.000000pt" viewBox="0 0 700.000000 700.000000"
 preserveAspectRatio="xMidYMid meet">
<metadata>
Created by potrace 1.14, written by Peter Selinger 2001-2017
</metadata>
<g transform="translate(0.000000,700.000000) scale(0.100000,-0.100000)"
fill="#000000" stroke="none">
<path d="M3200 6990 c-736 -73 -1345 -319 -1914 -774 -130 -104 -389 -362
-497 -496 -332 -410 -561 -866 -684 -1360 -49 -195 -72 -331 -94 -550 -9 -87
-7 -587 2 -650 3 -19 8 -60 12 -91 3 -31 8 -67 10 -80 3 -13 7 -41 11 -64 10
-70 55 -286 65 -312 5 -13 11 -37 14 -53 3 -15 26 -91 51 -167 218 -651 601
-1198 1149 -1642 168 -135 421 -294 636 -399 340 -164 679 -266 1089 -326 144
-21 598 -29 770 -13 904 82 1715 497 2329 1192 88 100 331 429 331 449 0 2 17
33 39 67 246 407 423 956 468 1454 12 139 9 597 -6 710 -45 358 -109 613 -227
913 -246 623 -681 1173 -1240 1569 -382 271 -841 469 -1299 561 -253 52 -375
64 -670 67 -148 1 -304 -1 -345 -5z"/>
</g>
</svg>
