<svg width="21" height="24" viewBox="0 0 21 24" fill="none" xmlns="http://www.w3.org/2000/svg">
<path d="M0.86377 19.7983C0.86377 21.9658 1.98682 23.0776 4.17676 23.0776H17.3276C19.293 23.0776 20.416 21.9546 20.416 19.7983V8.04004C20.416 5.87256 19.293 4.76074 17.103 4.76074H15.0928C15.0366 2.55957 13.1836 0.583008 10.6343 0.583008C8.09619 0.583008 6.24316 2.55957 6.18701 4.76074H4.17676C1.98682 4.76074 0.86377 5.86133 0.86377 8.04004V19.7983ZM7.57959 4.76074C7.62451 3.25586 8.82617 1.9082 10.6343 1.9082C12.4424 1.9082 13.6553 3.25586 13.7002 4.76074H7.57959ZM2.25635 19.7197V8.10742C2.25635 6.81592 2.94141 6.14209 4.19922 6.14209H17.0693C18.3159 6.14209 19.0234 6.81592 19.0234 8.10742V19.7197C19.0234 21.0225 18.3159 21.6851 17.2939 21.6851H4.19922C2.94141 21.6851 2.25635 21.0225 2.25635 19.7197Z" fill="black"/>
</svg>
