<svg width="23" height="21" viewBox="0 0 23 21" fill="none" xmlns="http://www.w3.org/2000/svg">
<path d="M0.661621 6.71338C0.661621 8.27067 1.08464 9.81299 1.93066 11.3403C2.78418 12.8677 3.97835 14.3576 5.51318 15.8101C7.0555 17.2625 8.85612 18.6514 10.915 19.9766C11.0124 20.0439 11.1247 20.1038 11.252 20.1562C11.3867 20.2087 11.5028 20.2349 11.6001 20.2349C11.6974 20.2349 11.8097 20.2087 11.937 20.1562C12.0718 20.1038 12.1878 20.0439 12.2852 19.9766C14.3441 18.6514 16.141 17.2625 17.6758 15.8101C19.2106 14.3576 20.4048 12.8677 21.2583 11.3403C22.1118 9.81299 22.5386 8.27067 22.5386 6.71338C22.5386 5.74756 22.3813 4.8641 22.0669 4.06299C21.7599 3.26188 21.3294 2.56934 20.7754 1.98535C20.2214 1.39388 19.5662 0.940918 18.8101 0.626465C18.0614 0.304525 17.2415 0.143555 16.3506 0.143555C15.3398 0.143555 14.4152 0.386882 13.5767 0.873535C12.7381 1.3527 12.0793 1.99284 11.6001 2.79395C11.1209 1.99284 10.4583 1.3527 9.6123 0.873535C8.77376 0.386882 7.84912 0.143555 6.83838 0.143555C5.95492 0.143555 5.13509 0.304525 4.37891 0.626465C3.63021 0.940918 2.9751 1.39388 2.41357 1.98535C1.85954 2.56934 1.42904 3.26188 1.12207 4.06299C0.815104 4.8641 0.661621 5.74756 0.661621 6.71338ZM2.04297 6.71338C2.04297 5.68018 2.24886 4.77425 2.66064 3.99561C3.07243 3.21696 3.6377 2.61051 4.35645 2.17627C5.08268 1.74202 5.90625 1.5249 6.82715 1.5249C7.51595 1.5249 8.1224 1.65218 8.64648 1.90674C9.17806 2.15381 9.63477 2.47575 10.0166 2.87256C10.3984 3.26188 10.7166 3.67367 10.9712 4.10791C11.0985 4.2876 11.207 4.41113 11.2969 4.47852C11.3867 4.5459 11.4878 4.57959 11.6001 4.57959C11.7124 4.57959 11.8097 4.5459 11.8921 4.47852C11.9819 4.41113 12.0905 4.2876 12.2178 4.10791C12.4873 3.68115 12.813 3.26937 13.1948 2.87256C13.5767 2.47575 14.0259 2.15381 14.5425 1.90674C15.0666 1.65218 15.6768 1.5249 16.373 1.5249C17.2865 1.5249 18.1025 1.74202 18.8213 2.17627C19.5475 2.61051 20.1165 3.21696 20.5283 3.99561C20.9476 4.77425 21.1572 5.68018 21.1572 6.71338C21.1572 7.76156 20.9027 8.82096 20.3936 9.8916C19.8919 10.9548 19.2069 12.0029 18.3384 13.0361C17.4699 14.0693 16.4704 15.0651 15.3398 16.0234C14.2168 16.9743 13.0376 17.8577 11.8022 18.6738C11.6974 18.7487 11.63 18.7861 11.6001 18.7861C11.5701 18.7861 11.5065 18.7487 11.4092 18.6738C10.1663 17.8577 8.9834 16.9743 7.86035 16.0234C6.7373 15.0651 5.73779 14.0693 4.86182 13.0361C3.98584 12.0029 3.29704 10.9548 2.79541 9.8916C2.29378 8.82096 2.04297 7.76156 2.04297 6.71338Z" fill="black"/>
</svg>
