<svg width="28" height="28" viewBox="0 0 28 28" fill="none" xmlns="http://www.w3.org/2000/svg">
<path d="M3.86377 20.7983C3.86377 22.9658 4.98682 24.0776 7.17676 24.0776H20.3276C22.293 24.0776 23.416 22.9546 23.416 20.7983V9.04004C23.416 6.87256 22.293 5.76074 20.103 5.76074H18.0928C18.0366 3.55957 16.1836 1.58301 13.6343 1.58301C11.0962 1.58301 9.24316 3.55957 9.18701 5.76074H7.17676C4.98682 5.76074 3.86377 6.86133 3.86377 9.04004V20.7983ZM10.5796 5.76074C10.6245 4.25586 11.8262 2.9082 13.6343 2.9082C15.4424 2.9082 16.6553 4.25586 16.7002 5.76074H10.5796ZM5.25635 20.7197V9.10742C5.25635 7.81592 5.94141 7.14209 7.19922 7.14209H20.0693C21.3159 7.14209 22.0234 7.81592 22.0234 9.10742V20.7197C22.0234 22.0225 21.3159 22.6851 20.2939 22.6851H7.19922C5.94141 22.6851 5.25635 22.0225 5.25635 20.7197Z" fill="black"/>
</svg>
