<svg width="28" height="28" viewBox="0 0 28 28" fill="none" xmlns="http://www.w3.org/2000/svg">
<path d="M2.66162 10.7134C2.66162 12.2707 3.08464 13.813 3.93066 15.3403C4.78418 16.8677 5.97835 18.3576 7.51318 19.8101C9.0555 21.2625 10.8561 22.6514 12.915 23.9766C13.0124 24.0439 13.1247 24.1038 13.252 24.1562C13.3867 24.2087 13.5028 24.2349 13.6001 24.2349C13.6974 24.2349 13.8097 24.2087 13.937 24.1562C14.0718 24.1038 14.1878 24.0439 14.2852 23.9766C16.3441 22.6514 18.141 21.2625 19.6758 19.8101C21.2106 18.3576 22.4048 16.8677 23.2583 15.3403C24.1118 13.813 24.5386 12.2707 24.5386 10.7134C24.5386 9.74756 24.3813 8.8641 24.0669 8.06299C23.7599 7.26188 23.3294 6.56934 22.7754 5.98535C22.2214 5.39388 21.5662 4.94092 20.8101 4.62646C20.0614 4.30452 19.2415 4.14355 18.3506 4.14355C17.3398 4.14355 16.4152 4.38688 15.5767 4.87354C14.7381 5.3527 14.0793 5.99284 13.6001 6.79395C13.1209 5.99284 12.4583 5.3527 11.6123 4.87354C10.7738 4.38688 9.84912 4.14355 8.83838 4.14355C7.95492 4.14355 7.13509 4.30452 6.37891 4.62646C5.63021 4.94092 4.9751 5.39388 4.41357 5.98535C3.85954 6.56934 3.42904 7.26188 3.12207 8.06299C2.8151 8.8641 2.66162 9.74756 2.66162 10.7134ZM4.04297 10.7134C4.04297 9.68018 4.24886 8.77425 4.66064 7.99561C5.07243 7.21696 5.6377 6.61051 6.35645 6.17627C7.08268 5.74202 7.90625 5.5249 8.82715 5.5249C9.51595 5.5249 10.1224 5.65218 10.6465 5.90674C11.1781 6.15381 11.6348 6.47575 12.0166 6.87256C12.3984 7.26188 12.7166 7.67367 12.9712 8.10791C13.0985 8.2876 13.207 8.41113 13.2969 8.47852C13.3867 8.5459 13.4878 8.57959 13.6001 8.57959C13.7124 8.57959 13.8097 8.5459 13.8921 8.47852C13.9819 8.41113 14.0905 8.2876 14.2178 8.10791C14.4873 7.68115 14.813 7.26937 15.1948 6.87256C15.5767 6.47575 16.0259 6.15381 16.5425 5.90674C17.0666 5.65218 17.6768 5.5249 18.373 5.5249C19.2865 5.5249 20.1025 5.74202 20.8213 6.17627C21.5475 6.61051 22.1165 7.21696 22.5283 7.99561C22.9476 8.77425 23.1572 9.68018 23.1572 10.7134C23.1572 11.7616 22.9027 12.821 22.3936 13.8916C21.8919 14.9548 21.2069 16.0029 20.3384 17.0361C19.4699 18.0693 18.4704 19.0651 17.3398 20.0234C16.2168 20.9743 15.0376 21.8577 13.8022 22.6738C13.6974 22.7487 13.63 22.7861 13.6001 22.7861C13.5701 22.7861 13.5065 22.7487 13.4092 22.6738C12.1663 21.8577 10.9834 20.9743 9.86035 20.0234C8.7373 19.0651 7.73779 18.0693 6.86182 17.0361C5.98584 16.0029 5.29704 14.9548 4.79541 13.8916C4.29378 12.821 4.04297 11.7616 4.04297 10.7134Z" fill="black"/>
</svg>
