<svg width="32" height="32" viewBox="0 0 32 32" fill="none" xmlns="http://www.w3.org/2000/svg">
<circle cx="16" cy="16" r="15.5" stroke="black"/>
<path d="M19.7887 14.3061C20.7753 14.0816 21.8006 13.2653 21.8006 11.2857C21.8006 8.81633 19.3244 8 16.9449 8H11.7991L10 8.32653V23L11.7991 22.6939C11.7991 22.6939 14.1979 23 15.7455 23C20.756 23 23 21.7959 23 18.5306C23 16.102 21.6071 14.7959 19.7887 14.3061ZM16.6548 8.32653C18.2024 8.32653 19.9821 9.14286 19.9821 11.2041C19.9821 12.8367 19.1116 14.0612 17.564 14.0612L17.6027 14.0816C15.3973 14.1633 13.9271 15.1429 11.7991 15.3265V8.32653H16.6548ZM16.0357 22.6939C14.5074 22.6939 11.7991 22.3673 11.7991 22.3673V15.6327C14.0238 15.4694 15.5134 14.3878 17.8542 14.3878C19.6533 14.5306 21.1815 16 21.1815 18.5306C21.1815 20.5714 19.8854 22.6939 16.0357 22.6939Z" fill="black"/>
</svg>
